<svg width="48" height="46" viewBox="0 0 48 46" fill="none" xmlns="http://www.w3.org/2000/svg">
<path d="M47.2907 20.3235C46.9241 19.8912 46.4227 19.6721 45.7992 19.6721C44.6743 19.6721 43.1467 20.3791 40.9895 21.8966C40.0339 22.5708 36.6381 23.5498 33.4951 23.5498C31.6144 23.5498 29.1421 23.1994 28.0383 21.5242C27.1367 20.1582 27.2681 18.0913 28.4393 15.3562C28.8194 14.2372 29.0848 12.5636 29.0848 11.2879C29.0848 5.06419 23.9439 0 17.625 0C12.9645 0 8.83556 2.71912 7.04831 6.94669C6.47278 7.05197 5.98068 7.10513 5.55093 7.10513C4.06622 7.10513 3.62887 6.495 2.98256 5.41819C2.70534 4.95553 2.29247 4.70109 1.81725 4.70109C1.00668 4.70109 0.110059 5.49909 0.0140594 6.83466C-0.119909 8.72128 0.683153 11.2794 3.30197 12.6504C2.67337 13.038 2.10637 13.5226 1.58475 14.1191C1.19878 14.5598 1.10193 15.0856 1.31934 15.5633C1.5839 16.1472 2.26218 16.5391 3.00712 16.5391C3.23972 16.5391 3.47062 16.5004 3.693 16.4245C4.00143 16.32 4.37718 16.2678 4.8449 16.2678C5.27803 16.2678 5.7389 16.3107 6.18553 16.3529C6.59259 16.3909 6.97931 16.4272 7.3484 16.433C7.81181 17.4323 8.41687 18.43 9.14662 19.4032C9.44493 19.8001 9.28893 20.0976 8.27868 21.5848C7.85981 22.2016 7.33837 22.9684 6.71559 23.9863C3.45037 29.3134 3.57009 35.5337 7.0215 39.8328C11.5144 45.4296 20.4083 45.4296 29.8247 45.4296C43.0902 45.4296 46.7557 31.8531 47.7145 26.0153C48.2023 23.0468 48.0675 21.2386 47.2907 20.3235ZM44.9565 25.5622C44.4745 28.4929 43.4246 32.7278 41.1562 36.2703C39.9058 38.2219 38.416 39.7428 36.7266 40.7902C34.7548 42.0145 32.4326 42.6347 29.8246 42.6347C21.0974 42.6347 12.854 42.6347 9.20043 38.0827C7.84715 36.3958 7.14093 34.2867 7.1595 31.9846C7.17712 29.7803 7.86562 27.458 9.09843 25.4458C9.6899 24.4826 10.1888 23.7471 10.5907 23.1555C11.6736 21.5595 12.9012 19.7512 11.3828 17.7264C10.7971 16.9453 10.311 16.1542 9.93178 15.3587C10.6295 14.8911 11.0154 14.2321 11.0314 13.4728C11.0474 12.6083 10.5587 11.7598 9.78515 11.3132C9.17587 10.9601 8.82459 10.6223 8.74284 10.308C8.66522 10.0114 8.83547 9.72234 9.01668 9.41559L9.02503 9.40209L9.07565 9.39197L9.19022 9.10462C9.22312 9.03806 9.24834 8.97572 9.26943 8.91422L9.56353 8.17772C10.8789 4.90753 14.0437 2.79431 17.625 2.79431C22.4027 2.79431 26.2897 6.60469 26.2897 11.288C26.2897 12.2233 26.085 13.5589 25.8247 14.3644C24.3053 17.9531 24.2641 20.8796 25.7049 23.0637C27.1197 25.2099 29.8145 26.3449 33.495 26.3449C37.1032 26.3449 41.115 25.2267 42.5996 24.1819C43.8803 23.2802 44.6994 22.8522 45.1915 22.6491C45.2261 23.1724 45.2017 24.0741 44.9565 25.5622Z" fill="#FFFFFB"/>
<path d="M14.7517 7.84659C13.914 7.84659 13.2357 8.52571 13.2357 9.36328C13.2357 10.1992 13.914 10.8792 14.7517 10.8792C15.5884 10.8792 16.2675 10.1992 16.2675 9.36328C16.2675 8.52581 15.5884 7.84659 14.7517 7.84659Z" fill="#FFFFFB"/>
</svg>
