<svg width="48" height="50" viewBox="0 0 48 50" fill="none" xmlns="http://www.w3.org/2000/svg">
<path d="M23.9983 25.7832C31.1178 25.7832 36.8899 20.0111 36.8899 12.8916C36.8899 5.77211 31.1178 0 23.9983 0C16.8788 0 11.1067 5.77211 11.1067 12.8916C11.1151 20.0078 16.8822 25.7749 23.9983 25.7832ZM23.9983 2.49515C29.7405 2.49515 34.3948 7.14943 34.3948 12.8916C34.3948 18.6338 29.7405 23.288 23.9983 23.288C18.2562 23.288 13.6019 18.6338 13.6019 12.8916C13.6085 7.15276 18.2595 2.5018 23.9983 2.49515ZM47.9684 47.5575C45.4683 36.4508 35.6873 28.2783 23.9983 28.2783C12.3094 28.2783 2.52842 36.4508 0.0598836 47.3928L0.0282785 47.5575C0.00998072 47.6374 0 47.7289 0 47.8237C0 48.5123 0.558913 49.0712 1.24757 49.0712C1.84142 49.0712 2.33879 48.6554 2.46354 48.0981L2.46521 48.0898C4.7125 38.1126 13.4988 30.7735 23.9983 30.7735C34.4979 30.7735 43.2842 38.1142 45.5049 47.9434L45.5331 48.0915C45.6595 48.6571 46.1553 49.0729 46.7508 49.0729H46.7524C46.8472 49.0729 46.9387 49.0613 47.0269 49.0413L47.0186 49.043C47.5841 48.9165 48 48.4192 48 47.8237C48 47.7289 47.99 47.6374 47.9701 47.5492L47.9717 47.5575H47.9684Z" fill="#FFFFFB"/>
</svg>
