<svg width="48" height="48" viewBox="0 0 48 48" fill="none" xmlns="http://www.w3.org/2000/svg">
<path d="M45 19.875H36.642L28.0575 3.966C27.864 3.612 27.4935 3.375 27.0675 3.375C26.4465 3.375 25.9425 3.879 25.9425 4.5C25.9425 4.6965 25.992 4.8795 26.0805 5.04L26.0775 5.034L34.0845 19.875H13.962L22.0545 5.0385C22.137 4.887 22.185 4.7055 22.185 4.5135C22.185 3.8925 21.681 3.3885 21.06 3.3885C20.6415 3.3885 20.277 3.6165 20.0835 3.954L20.0805 3.96L11.4 19.8735H3C2.379 19.8735 1.875 20.3775 1.875 20.9985C1.875 21.6195 2.379 22.1235 3 22.1235H5.0835L7.953 43.6485C8.028 44.202 8.499 44.6235 9.066 44.6235H39.0675C39.636 44.6235 40.107 44.202 40.1835 43.6545V43.6485L43.053 22.1235H45C45.621 22.1235 46.125 21.6195 46.125 20.9985C46.125 20.3775 45.621 19.8735 45 19.8735V19.875ZM38.0835 42.375H10.0515L7.3515 22.125H40.782L38.0835 42.375ZM24.066 25.875H24.06C23.4405 25.875 22.938 26.376 22.935 26.994L22.8825 37.494C22.8825 37.4955 22.8825 37.497 22.8825 37.5C22.8825 38.1195 23.3835 38.622 24.0015 38.625H24.0075C24.627 38.625 25.128 38.124 25.1325 37.506L25.185 27.006C25.185 27.0045 25.185 27.003 25.185 27C25.185 26.3805 24.684 25.878 24.066 25.875ZM16.5975 25.875H16.5915C15.972 25.875 15.4695 26.376 15.4665 26.994L15.4155 37.494C15.4155 37.4955 15.4155 37.497 15.4155 37.5C15.4155 38.1195 15.9165 38.622 16.5345 38.625H16.5405C17.16 38.625 17.661 38.124 17.6655 37.506L17.7165 27.006C17.7165 27.0045 17.7165 27.003 17.7165 27C17.7165 26.3805 17.2155 25.878 16.5975 25.875ZM31.524 25.875H31.518C30.8985 25.875 30.396 26.376 30.393 26.994L30.3435 37.494C30.3435 37.4955 30.3435 37.497 30.3435 37.5C30.3435 38.1195 30.8445 38.622 31.4625 38.625H31.4685C32.088 38.625 32.589 38.124 32.5935 37.506L32.643 27.006C32.643 27.0045 32.643 27.0015 32.643 27C32.643 26.3805 32.142 25.878 31.524 25.875Z" fill="#FFFFFB"/>
</svg>
